<?xml version="1.0" standalone="no"?>
<!DOCTYPE svg PUBLIC "-//W3C//DTD SVG 20010904//EN"
 "http://www.w3.org/TR/2001/REC-SVG-20010904/DTD/svg10.dtd">
<svg version="1.0" xmlns="http://www.w3.org/2000/svg"
 width="500.000000pt" height="500.000000pt" viewBox="0 0 500.000000 500.000000"
 preserveAspectRatio="xMidYMid meet">

<g transform="translate(0.000000,500.000000) scale(0.100000,-0.100000)"
fill="#000000" stroke="none">
<path d="M2675 3790 c-60 -9 -198 -30 -305 -45 -107 -15 -211 -30 -230 -34
l-35 -7 -3 -144 c-1 -85 -7 -149 -14 -157 -8 -10 -60 -13 -228 -13 -178 0
-219 -3 -223 -14 -3 -8 -6 -187 -7 -397 0 -211 -4 -387 -8 -391 -4 -4 -106 -9
-227 -10 l-220 -3 -3 -401 c-2 -344 0 -403 13 -414 11 -9 118 -10 480 -5 l465
8 0 157 0 156 -57 2 c-53 1 -61 4 -90 36 -18 20 -33 46 -33 59 0 30 144 458
165 490 23 35 64 47 164 47 81 1 84 2 55 14 -131 57 -192 228 -130 363 50 107
174 168 293 144 61 -12 117 -46 106 -64 -4 -7 -20 -31 -35 -54 -60 -88 -57
-205 8 -303 39 -60 41 -56 -44 -96 -57 -27 -83 -60 -106 -134 -8 -25 -34 -103
-59 -173 -53 -147 -52 -152 17 -221 62 -62 124 -89 216 -94 122 -6 221 42 290
143 33 48 60 138 60 201 0 47 22 74 63 74 56 0 75 -49 58 -152 -18 -107 -60
-190 -136 -264 l-65 -64 0 -150 0 -150 115 0 115 0 0 170 c0 94 3 170 8 170
74 5 103 10 124 24 28 18 48 56 48 89 0 12 -36 125 -80 252 -58 168 -85 234
-102 247 -24 18 -80 24 -175 20 -29 -2 -53 -1 -53 2 0 3 17 14 38 25 169 87
200 304 62 433 -28 26 -69 53 -90 59 l-40 12 -2 286 -3 286 -25 2 c-14 0 -74
-7 -135 -17z m145 -236 c0 -118 -2 -214 -4 -214 -3 0 -20 9 -38 19 -53 31
-182 80 -266 101 -104 25 -265 42 -329 34 l-53 -6 0 101 c0 83 3 101 15 101 8
0 133 16 277 36 323 44 381 51 391 46 4 -2 7 -100 7 -218z m-769 -194 c30 0
27 -57 -3 -62 -19 -2 -24 -11 -28 -51 -5 -35 -12 -52 -30 -65 -26 -17 -86 -33
-95 -24 -3 3 -5 29 -5 59 0 29 -3 53 -6 53 -19 0 -44 -24 -44 -44 0 -31 -37
-62 -84 -69 -32 -5 -39 -3 -43 13 -6 23 -8 24 -34 10 -18 -10 -19 -7 -19 84
l0 96 173 2 c94 2 178 2 185 1 8 -2 22 -3 33 -3z m-211 -284 c0 -60 -33 -96
-90 -96 l-40 0 0 70 0 70 65 0 65 0 0 -44z m858 -535 c128 -66 150 -233 43
-324 -155 -130 -387 44 -302 228 46 100 165 144 259 96z m-1318 -96 c0 -48
-46 -95 -95 -95 l-35 0 0 65 0 65 65 0 65 0 0 -35z m180 3 c0 -18 -11 -45 -26
-65 -21 -28 -31 -33 -65 -33 -36 0 -39 2 -39 28 0 15 -3 44 -6 65 l-7 37 72 0
71 0 0 -32z"/>
<path d="M2254 2089 c-10 -12 -18 -23 -16 -25 1 -2 -1 -5 -5 -6 -5 0 -14 -8
-21 -17 -8 -9 -11 -10 -7 -3 3 6 1 12 -4 12 -6 0 -14 1 -18 3 -5 1 -10 -71
-13 -161 l-5 -162 98 0 97 0 0 156 c0 101 -3 153 -10 149 -5 -3 -10 -1 -10 6
0 7 -10 9 -24 7 -16 -3 -23 -1 -19 8 2 6 -1 15 -8 20 -7 4 -10 3 -6 -2 3 -6 2
-16 -3 -24 -8 -13 -11 -13 -22 -1 -11 12 -10 13 2 6 12 -6 13 -5 3 5 -10 11
-9 17 4 32 9 10 14 18 11 18 -3 0 -13 -9 -24 -21z"/>
</g>
</svg>
